<?xml version="1.0" encoding="UTF-8"?>
<svg version="1.1" xmlns="http://www.w3.org/2000/svg" width="128" height="128">
<path d="M0 0 C13.06331418 9.78389689 21.25422509 22.02697979 24.40625 38.12109375 C26.35472309 52.317112 23.46833157 65.97584483 15.81640625 78.109375 C13.0363386 81.68953497 10.0424181 84.92896049 6.81640625 88.109375 C5.96949219 88.97175781 5.96949219 88.97175781 5.10546875 89.8515625 C-4.54335309 98.93557526 -17.98243928 103.00097069 -30.99609375 103.546875 C-48.09337932 103.00482103 -62.06516689 96.29496898 -73.7734375 83.9296875 C-83.77657868 72.22422894 -88.31261588 57.43480507 -87.18359375 42.109375 C-85.14799556 27.3944152 -79.7374215 16.51403204 -69.18359375 6.109375 C-68.61898437 5.53445312 -68.054375 4.95953125 -67.47265625 4.3671875 C-49.38692819 -12.6598638 -20.29694661 -12.92377008 0 0 Z M-64.5078125 18.65234375 C-73.1836192 29.76571537 -75.51105328 41.32315463 -74.18359375 55.109375 C-72.19797164 65.59594177 -66.60948153 74.92890409 -58.18359375 81.546875 C-46.46060189 89.50749765 -33.83573884 92.08942079 -19.86328125 89.4921875 C-7.61565908 85.87865929 1.51529492 78.12520022 7.81640625 67.109375 C13.04653282 56.45651096 13.61366914 44.14593611 10.31640625 32.796875 C5.62314951 20.65059435 -2.59244189 12.67563895 -14.03125 6.96875 C-32.07838731 -0.23700355 -51.45646597 4.37263519 -64.5078125 18.65234375 Z " fill="#000000" transform="translate(95.18359375,16.890625)"/>
<path d="M0 0 C4.82625 -0.0825 9.6525 -0.165 14.625 -0.25 C16.13658691 -0.28641602 17.64817383 -0.32283203 19.20556641 -0.36035156 C20.40874512 -0.3703418 21.61192383 -0.38033203 22.8515625 -0.390625 C24.68968506 -0.4220459 24.68968506 -0.4220459 26.56494141 -0.45410156 C31.80041632 0.23800813 34.83792771 2.71229828 38.3125 6.5625 C41.48952917 11.15154214 41.50821719 15.60365746 41 21 C39.30239493 25.73542467 37.091918 28.12459816 33 31 C34.50665385 35.41234342 36.91303136 38.94583076 39.625 42.6875 C44 48.73332055 44 48.73332055 44 51 C39.29849705 52.06409756 34.55596281 52.90412309 30 51 C26.68306115 47.85763688 24.37376649 44.06144068 22.08496094 40.13500977 C19.44192206 35.30803318 19.44192206 35.30803318 14.65625 32.96484375 C13.7796875 32.97644531 12.903125 32.98804688 12 33 C12.01160156 34.21558594 12.02320313 35.43117187 12.03515625 36.68359375 C12.04453278 38.26822764 12.05363313 39.85286318 12.0625 41.4375 C12.07087891 42.23994141 12.07925781 43.04238281 12.08789062 43.86914062 C12.0965143 45.91295221 12.0522815 47.95683902 12 50 C11.505 50.495 11.505 50.495 11 51 C7.37 51 3.74 51 0 51 C0 34.17 0 17.34 0 0 Z M12 12 C12 14.97 12 17.94 12 21 C14.27057377 21.05398987 16.54151288 21.09278742 18.8125 21.125 C20.70935547 21.15980469 20.70935547 21.15980469 22.64453125 21.1953125 C26.1338024 21.27581918 26.1338024 21.27581918 29 19 C29.41666667 16.5 29.41666667 16.5 29 14 C27.06029948 11.61607883 27.06029948 11.61607883 23.5234375 11.8046875 C22.14049032 11.81798507 20.75761346 11.84183768 19.375 11.875 C18.66859375 11.88402344 17.9621875 11.89304687 17.234375 11.90234375 C15.48943902 11.92592397 13.74467705 11.96179539 12 12 Z " fill="#000000" transform="translate(45,38)"/>
</svg>
